<svg width="24" height="24" viewBox="0 0 24 24" fill="none" xmlns="http://www.w3.org/2000/svg">
<g clip-path="url(#clip0_403_11384)">
<path d="M11.9799 9.30255C9.04393 9.30255 6.10796 9.30255 3.17199 9.30295C2.92511 9.30295 2.95373 9.27353 2.95373 9.52796C2.95294 11.3993 2.95174 13.2706 2.95373 15.1423C2.95532 16.6792 4.14362 17.8679 5.68218 17.8731C6.62797 17.8763 7.57336 17.8739 8.51915 17.8739C8.58515 17.8739 8.65194 17.8707 8.71714 17.8783C8.9517 17.9053 9.131 18.0981 9.14133 18.3291C9.15127 18.5589 8.98668 18.7672 8.7565 18.8157C8.73702 18.8197 8.71714 18.8229 8.69766 18.8229C7.50816 18.811 6.3139 18.8618 5.13036 18.7708C3.58426 18.6515 2.2262 17.2454 2.04293 15.7032C2.01629 15.4806 2.00357 15.2552 2.00357 15.031C2.00118 11.9165 1.99959 8.80202 2.00237 5.68715C2.00397 3.96334 3.12428 2.52259 4.78966 2.11231C5.0755 2.04194 5.37725 2.00695 5.67184 2.00616C9.89749 1.9994 14.1227 1.99781 18.3484 2.00337C20.3716 2.00616 21.9884 3.62422 21.9976 5.6474C22.0047 7.20781 21.9996 8.76863 21.9988 10.329C21.9988 10.6483 21.8413 10.853 21.5782 10.8852C21.2971 10.9198 21.0558 10.7035 21.049 10.3998C21.0426 10.1088 21.0486 9.81778 21.047 9.52717C21.0454 9.27154 21.0737 9.30295 20.8284 9.30295C19.023 9.30215 17.2177 9.30255 15.4124 9.30255C14.2682 9.30255 13.1245 9.30255 11.9803 9.30255H11.9799ZM11.995 8.35079C14.9437 8.35079 17.8928 8.3496 20.8415 8.35437C21.0021 8.35437 21.0542 8.32257 21.051 8.15201C21.0399 7.54375 21.043 6.93548 21.0494 6.32722C21.051 6.1841 21.0299 6.12208 20.861 6.12407C19.9223 6.13361 18.9833 6.12884 18.0443 6.12884C13.0855 6.12884 8.12676 6.12963 3.16802 6.12526C3.00025 6.12526 2.9434 6.15587 2.94777 6.33795C2.96129 6.93946 2.96129 7.54136 2.94777 8.14287C2.9434 8.32614 3.00144 8.35556 3.16841 8.35517C6.11074 8.35 9.05268 8.35159 11.995 8.35119V8.35079ZM20.9914 5.16913C20.7683 3.88343 19.6536 2.95672 18.3285 2.95553C14.1104 2.95155 9.89272 2.95076 5.67462 2.96109C5.36373 2.96189 5.03654 3.01556 4.74513 3.12171C3.79099 3.46997 3.22248 4.16808 2.99468 5.16913H20.991H20.9914Z" fill="black"/>
<path d="M16.5975 21.9994C13.7136 21.999 11.3621 19.6426 11.3653 16.7572C11.3684 13.8701 13.7188 11.5237 16.6067 11.5253C19.4922 11.5269 21.8445 13.8832 21.8393 16.7667C21.8342 19.6554 19.485 22.0002 16.5975 21.9998V21.9994ZM16.6019 21.0476C18.9662 21.0464 20.8884 19.1226 20.888 16.7576C20.8876 14.404 18.9658 12.4794 16.613 12.4771C14.2376 12.4747 12.3146 14.3993 12.3174 16.7763C12.3206 19.1266 14.2484 21.0488 16.6019 21.0476Z" fill="black"/>
<path d="M7.23381 15.6509C6.4545 15.6509 5.67519 15.6541 4.89548 15.6493C4.50185 15.6469 4.26328 15.2823 4.43783 14.957C4.5428 14.761 4.71894 14.697 4.93444 14.6974C6.01753 14.7006 7.10101 14.699 8.18409 14.699C8.63975 14.699 9.0954 14.6978 9.55146 14.6994C9.8775 14.7006 10.0934 14.8918 10.0938 15.1741C10.0938 15.4568 9.87909 15.6493 9.55226 15.6501C8.77931 15.6521 8.00676 15.6509 7.23381 15.6505V15.6509Z" fill="black"/>
<path d="M14.3752 16.99C14.3935 16.7204 14.4841 16.5737 14.6611 16.4922C14.8559 16.4019 15.0388 16.4389 15.1903 16.5868C15.5072 16.8961 15.8173 17.2118 16.1322 17.5228C16.306 17.6941 16.2606 17.7017 16.4451 17.5176C17.1978 16.7661 17.9497 16.0131 18.7023 15.2616C18.7584 15.2059 18.8141 15.1475 18.8785 15.1029C19.0709 14.9697 19.3147 14.9952 19.4765 15.1582C19.6395 15.3224 19.665 15.565 19.5325 15.7566C19.488 15.821 19.4304 15.8775 19.3743 15.9335C18.492 16.817 17.6089 17.7001 16.7254 18.5828C16.3974 18.9104 16.1748 18.9112 15.8511 18.5876C15.4257 18.1625 14.9962 17.7415 14.5792 17.3089C14.4798 17.2059 14.4213 17.0635 14.3756 16.9904L14.3752 16.99Z" fill="black"/>
</g>
<defs>
<clipPath id="clip0_403_11384">
<rect width="24" height="24" fill="white"/>
</clipPath>
</defs>
</svg>
