<svg width="32" height="32" viewBox="0 0 32 32" fill="none" xmlns="http://www.w3.org/2000/svg">
<path d="M6.75 4C7.07812 4 7.35937 4.28125 7.45312 4.60938L7.6875 5.5H28.3594C29.3438 5.5 30.0938 6.48438 29.8125 7.42188L27.2813 16.4219C27.0938 17.0781 26.5313 17.5 25.8282 17.5H10.4062L11.0625 20.5H26.25C26.625 20.5 27 20.875 27 21.25C27 21.6719 26.625 22 26.25 22H10.5C10.125 22 9.84375 21.7656 9.75 21.4375L6.14062 5.5H3.75C3.32813 5.5 3 5.17188 3 4.75C3 4.375 3.32813 4 3.75 4H6.75ZM8.01562 7L10.0312 16H25.8282L28.3594 7H8.01562ZM9 25.375C9 23.9688 10.1719 22.75 11.625 22.75C13.0313 22.75 14.25 23.9688 14.25 25.375C14.25 26.8281 13.0313 28 11.625 28C10.1719 28 9 26.8281 9 25.375ZM11.625 26.5C12.2344 26.5 12.75 26.0312 12.75 25.375C12.75 24.7656 12.2344 24.25 11.625 24.25C10.9688 24.25 10.5 24.7656 10.5 25.375C10.5 26.0312 10.9688 26.5 11.625 26.5ZM27 25.375C27 26.8281 25.7813 28 24.375 28C22.9219 28 21.75 26.8281 21.75 25.375C21.75 23.9688 22.9219 22.75 24.375 22.75C25.7813 22.75 27 23.9688 27 25.375ZM24.375 24.25C23.7188 24.25 23.25 24.7656 23.25 25.375C23.25 26.0312 23.7188 26.5 24.375 26.5C24.9844 26.5 25.5 26.0312 25.5 25.375C25.5 24.7656 24.9844 24.25 24.375 24.25Z" fill="#241637"/>
</svg>
