<svg width="32" height="32" viewBox="0 0 32 32" fill="none" xmlns="http://www.w3.org/2000/svg">
<g clip-path="url(#clip0_721_6397)">
<path d="M15.6904 22.0625L8.94043 15.3125C8.65918 15.0312 8.65918 14.5156 8.94043 14.2344C9.22168 13.9531 9.7373 13.9531 10.0185 14.2344L15.5029 19.7188V5.75C15.5029 5.375 15.831 5 16.2529 5C16.6279 5 17.0029 5.375 17.0029 5.75V19.7188L22.4404 14.2344C22.7217 13.9531 23.2373 13.9531 23.5186 14.2344C23.7998 14.5156 23.7998 15.0312 23.5186 15.3125L16.7685 22.0625C16.6279 22.2031 16.4404 22.25 16.2529 22.25C16.0185 22.25 15.831 22.2031 15.6904 22.0625ZM24.5029 24.5C24.8779 24.5 25.2529 24.875 25.2529 25.25C25.2529 25.6719 24.8779 26 24.5029 26H8.00293C7.58105 26 7.25293 25.6719 7.25293 25.25C7.25293 24.875 7.58105 24.5 8.00293 24.5H24.5029Z" fill="#241637"/>
</g>
<defs>
<clipPath id="clip0_721_6397">
<rect width="32" height="32" fill="white"/>
</clipPath>
</defs>
</svg>
