<svg width="24" height="24" viewBox="0 0 24 24" fill="none" xmlns="http://www.w3.org/2000/svg">
<g clip-path="url(#clip0_2460_253)">
<path d="M23.8779 12C23.8779 17.8125 19.6123 22.6406 14.0342 23.4844V15.375H16.7529L17.2686 12H14.0342V9.84375C14.0342 8.90625 14.5029 8.01562 15.9561 8.01562H17.4092V5.15625C17.4092 5.15625 16.0967 4.92188 14.7842 4.92188C12.1592 4.92188 10.4248 6.5625 10.4248 9.46875V12H7.47168V15.375H10.4248V23.4844C4.84668 22.6406 0.62793 17.8125 0.62793 12C0.62793 5.57812 5.83105 0.375 12.2529 0.375C18.6748 0.375 23.8779 5.57812 23.8779 12Z" fill="white"/>
</g>
<defs>
<clipPath id="clip0_2460_253">
<rect width="24" height="24" fill="white"/>
</clipPath>
</defs>
</svg>
