<svg width="32" height="32" viewBox="0 0 32 32" fill="none" xmlns="http://www.w3.org/2000/svg">
<g clip-path="url(#clip0_721_6395)">
<path d="M27.8779 15.5C27.8779 21.3125 23.6123 26.1406 18.0342 26.9844V18.875H20.7529L21.2686 15.5H18.0342V13.3438C18.0342 12.4062 18.5029 11.5156 19.9561 11.5156H21.4092V8.65625C21.4092 8.65625 20.0967 8.42188 18.7842 8.42188C16.1592 8.42188 14.4248 10.0625 14.4248 12.9688V15.5H11.4717V18.875H14.4248V26.9844C8.84668 26.1406 4.62793 21.3125 4.62793 15.5C4.62793 9.07812 9.83105 3.875 16.2529 3.875C22.6748 3.875 27.8779 9.07812 27.8779 15.5Z" fill="#241637"/>
</g>
<defs>
<clipPath id="clip0_721_6395">
<rect width="32" height="32" fill="white"/>
</clipPath>
</defs>
</svg>
