<svg width="24" height="24" viewBox="0 0 24 24" fill="none" xmlns="http://www.w3.org/2000/svg">
<path d="M16.1666 10.3334H17.8333C19.5 10.3334 20.3333 9.50002 20.3333 7.83335V6.16669C20.3333 4.50002 19.5 3.66669 17.8333 3.66669H16.1666C14.5 3.66669 13.6666 4.50002 13.6666 6.16669V7.83335C13.6666 9.50002 14.5 10.3334 16.1666 10.3334Z" stroke="#241637" stroke-width="1.5" stroke-miterlimit="10" stroke-linecap="round" stroke-linejoin="round"/>
<path d="M6.16663 20.3334H7.83329C9.49996 20.3334 10.3333 19.5 10.3333 17.8334V16.1667C10.3333 14.5 9.49996 13.6667 7.83329 13.6667H6.16663C4.49996 13.6667 3.66663 14.5 3.66663 16.1667V17.8334C3.66663 19.5 4.49996 20.3334 6.16663 20.3334Z" stroke="#241637" stroke-width="1.5" stroke-miterlimit="10" stroke-linecap="round" stroke-linejoin="round"/>
<path d="M6.99996 10.3334C8.84091 10.3334 10.3333 8.84097 10.3333 7.00002C10.3333 5.15907 8.84091 3.66669 6.99996 3.66669C5.15901 3.66669 3.66663 5.15907 3.66663 7.00002C3.66663 8.84097 5.15901 10.3334 6.99996 10.3334Z" stroke="#241637" stroke-width="1.5" stroke-miterlimit="10" stroke-linecap="round" stroke-linejoin="round"/>
<path d="M17 20.3334C18.8409 20.3334 20.3333 18.841 20.3333 17C20.3333 15.1591 18.8409 13.6667 17 13.6667C15.159 13.6667 13.6666 15.1591 13.6666 17C13.6666 18.841 15.159 20.3334 17 20.3334Z" stroke="#241637" stroke-width="1.5" stroke-miterlimit="10" stroke-linecap="round" stroke-linejoin="round"/>
</svg>
