<svg width="32" height="32" viewBox="0 0 32 32" fill="none" xmlns="http://www.w3.org/2000/svg">
<g clip-path="url(#clip0_721_6379)">
<path d="M15.2061 8.00046L15.7686 7.48484C17.3154 5.93796 19.5186 5.23483 21.6279 5.60984C24.8623 6.12546 27.2529 8.93796 27.2529 12.2192V12.4536C27.2529 14.4223 26.4092 16.2974 25.0029 17.6099L16.5186 25.5317C16.1904 25.8599 15.7217 26.0005 15.2529 26.0005C14.7373 26.0005 14.2686 25.8599 13.9404 25.5317L5.45605 17.6099C4.0498 16.2974 3.25293 14.4223 3.25293 12.4536V12.2192C3.25293 8.93796 5.59668 6.12546 8.83105 5.60984C10.9404 5.23483 13.1436 5.93796 14.6904 7.48484L15.2061 8.00046ZM15.2061 10.1567L13.6123 8.51608C12.4404 7.34421 10.7529 6.78171 9.06543 7.06296C6.58105 7.48484 4.70605 9.64108 4.70605 12.2192V12.4536C4.70605 14.0005 5.3623 15.4536 6.4873 16.4849L14.9717 24.4067C15.0186 24.5005 15.1123 24.5005 15.2061 24.5005C15.3467 24.5005 15.4404 24.5005 15.4873 24.4067L23.9717 16.4849C25.0967 15.4536 25.7529 14.0005 25.7529 12.4536V12.2192C25.7529 9.64108 23.8779 7.48484 21.3936 7.06296C19.7061 6.78171 18.0186 7.34421 16.8467 8.51608L15.2061 10.1567Z" fill="#241637"/>
</g>
<defs>
<clipPath id="clip0_721_6379">
<rect width="32" height="32" fill="white"/>
</clipPath>
</defs>
</svg>
