<svg width="32" height="32" viewBox="0 0 32 32" fill="none" xmlns="http://www.w3.org/2000/svg">
<g clip-path="url(#clip0_721_6399)">
<path d="M3.25293 9.5C3.25293 7.85938 4.56543 6.5 6.25293 6.5H24.2529C25.8936 6.5 27.2529 7.85938 27.2529 9.5V21.5C27.2529 23.1875 25.8936 24.5 24.2529 24.5H6.25293C4.56543 24.5 3.25293 23.1875 3.25293 21.5V9.5ZM4.75293 9.5V11.375L13.8936 18.125C14.6904 18.6875 15.7686 18.6875 16.5654 18.125L25.7529 11.375V9.5C25.7529 8.70312 25.0498 8 24.2529 8H6.20605C5.40918 8 4.70605 8.70312 4.70605 9.5H4.75293ZM4.75293 13.25V21.5C4.75293 22.3438 5.40918 23 6.25293 23H24.2529C25.0498 23 25.7529 22.3438 25.7529 21.5V13.25L17.4561 19.3438C16.1436 20.2812 14.3154 20.2812 13.0029 19.3438L4.75293 13.25Z" fill="white"/>
</g>
<defs>
<clipPath id="clip0_721_6399">
<rect width="32" height="32" fill="white"/>
</clipPath>
</defs>
</svg>
