<svg width="32" height="32" viewBox="0 0 32 32" fill="none" xmlns="http://www.w3.org/2000/svg">
<g clip-path="url(#clip0_721_6385)">
<path d="M26.9404 20.0152C27.8779 20.4371 28.3936 21.4684 28.1592 22.4527L27.1748 26.859C26.9404 27.8434 26.0967 28.4996 25.0654 28.4996C13.581 28.4996 4.25293 19.1715 4.25293 7.68711C4.25293 6.65586 4.90918 5.81211 5.89355 5.62461L10.2998 4.59336C11.2842 4.35899 12.3154 4.87461 12.7373 5.81211L14.7529 10.5934C15.1279 11.4371 14.8936 12.4684 14.1904 13.0777L12.2685 14.6246C13.6279 17.0621 15.6904 19.1246 18.1279 20.484L19.7217 18.609C20.2842 17.859 21.3154 17.6246 22.1592 17.9527L26.9404 20.0152ZM25.6748 26.5308L26.7061 22.1246C26.7998 21.7965 26.6123 21.5152 26.3311 21.3746L21.5967 19.359C21.3154 19.2652 21.0342 19.3121 20.8467 19.5465L18.9248 21.8902C18.6904 22.1715 18.3154 22.2652 18.0342 22.0777C14.8467 20.5308 12.2217 17.9058 10.6748 14.7652C10.4873 14.4371 10.581 14.0621 10.8623 13.8277L13.206 11.9059C13.4404 11.7184 13.4873 11.4371 13.3935 11.1559L11.3779 6.42149C11.2373 6.18711 11.0029 5.99961 10.7685 5.99961C10.7217 5.99961 10.6748 6.04649 10.6279 6.04649L6.22168 7.07773C5.94043 7.12461 5.75293 7.35899 5.75293 7.68711C5.75293 18.3277 14.4248 27.0465 25.0654 27.0465C25.3936 27.0465 25.6279 26.8121 25.6748 26.5308Z" fill="white"/>
</g>
<defs>
<clipPath id="clip0_721_6385">
<rect width="32" height="32" fill="white"/>
</clipPath>
</defs>
</svg>
