<svg width="32" height="32" viewBox="0 0 32 32" fill="none" xmlns="http://www.w3.org/2000/svg">
<g clip-path="url(#clip0_721_6387)">
<path d="M25.5029 15.5C25.5029 15.9219 25.1279 16.25 24.7529 16.25H16.5029V24.5C16.5029 24.9219 16.1279 25.2969 15.7529 25.2969C15.331 25.2969 15.0029 24.9219 15.0029 24.5V16.25H6.75293C6.33105 16.25 6.00293 15.9219 6.00293 15.5469C6.00293 15.125 6.33105 14.75 6.75293 14.75H15.0029V6.5C15.0029 6.125 15.331 5.79688 15.7529 5.79688C16.1279 5.79688 16.5029 6.125 16.5029 6.5V14.75H24.7529C25.1279 14.75 25.5029 15.125 25.5029 15.5Z" fill="white"/>
</g>
<defs>
<clipPath id="clip0_721_6387">
<rect width="32" height="32" fill="white"/>
</clipPath>
</defs>
</svg>
