<svg width="32" height="32" viewBox="0 0 32 32" fill="none" xmlns="http://www.w3.org/2000/svg">
<g clip-path="url(#clip0_721_6381)">
<path d="M27.0186 26.2344C27.2998 26.5156 27.2998 27.0312 27.0186 27.3125C26.8779 27.4531 26.6904 27.5 26.5029 27.5C26.2686 27.5 26.0811 27.4531 25.8936 27.3125L19.2842 20.6562C17.5498 22.1562 15.3467 23 12.956 23C7.6123 23 3.25293 18.6406 3.25293 13.25C3.25293 7.90625 7.56543 3.5 12.956 3.5C18.2998 3.5 22.7061 7.90625 22.7061 13.25C22.7061 15.6875 21.8623 17.8906 20.3623 19.625L27.0186 26.2344ZM13.0029 21.5C17.5498 21.5 21.2529 17.8438 21.2529 13.25C21.2529 8.70312 17.5498 5 13.0029 5C8.40918 5 4.75293 8.70312 4.75293 13.25C4.75293 17.7969 8.40918 21.5 13.0029 21.5Z" fill="white"/>
</g>
<defs>
<clipPath id="clip0_721_6381">
<rect width="32" height="32" fill="white"/>
</clipPath>
</defs>
</svg>
