<svg width="24" height="24" viewBox="0 0 24 24" fill="none" xmlns="http://www.w3.org/2000/svg">
<g clip-path="url(#clip0_260_9838)">
<path d="M15.1473 8.9706C15.1473 9.45791 15.5423 9.85295 16.0296 9.85295C16.5169 9.85295 16.912 9.45791 16.912 8.9706C16.912 8.48328 16.5169 8.08824 16.0296 8.08824C15.5423 8.08824 15.1473 8.48328 15.1473 8.9706Z" fill="#241637" stroke="#241637" stroke-width="1.5" stroke-linecap="round" stroke-linejoin="round"/>
<path d="M17.3529 5L13.9479 5C13.4741 5 13.0197 5.18794 12.6844 5.52324L5.52321 12.6844C5.35726 12.8503 5.22563 13.0473 5.13582 13.2641C5.04601 13.4809 4.99978 13.7133 4.99978 13.948C4.99978 14.1826 5.04601 14.415 5.13582 14.6318C5.22563 14.8486 5.35726 15.0456 5.52321 15.2115L9.78851 19.4768C9.95443 19.6427 10.1514 19.7744 10.3682 19.8642C10.585 19.954 10.8174 20.0002 11.052 20.0002C11.2867 20.0002 11.5191 19.954 11.7359 19.8642C11.9527 19.7744 12.1497 19.6427 12.3156 19.4768L19.4768 12.3147C19.8116 11.9798 19.9998 11.5257 20 11.0521L20 7.64706C20 6.94502 19.7211 6.27173 19.2247 5.77531C18.7283 5.27889 18.055 5 17.3529 5Z" stroke="#241637" stroke-width="1.5" stroke-linecap="round" stroke-linejoin="round"/>
</g>
<defs>
<clipPath id="clip0_260_9838">
<rect width="24" height="24" fill="white"/>
</clipPath>
</defs>
</svg>
