<svg width="24" height="24" viewBox="0 0 24 24" fill="none" xmlns="http://www.w3.org/2000/svg">
<g clip-path="url(#clip0_403_11345)">
<path d="M5.59453 8.73517C5.38172 9.44017 5.15813 10.1419 4.95938 10.8511C4.83141 11.3077 4.74094 11.775 4.6336 12.2377C4.55203 12.5883 4.28813 12.7842 3.98016 12.7233C3.63938 12.6558 3.46875 12.3778 3.54281 12C3.94969 9.9258 4.63781 7.9458 5.54156 6.03751C5.61188 5.88939 5.65172 5.71267 5.6536 5.54861C5.66391 4.55861 5.65735 3.56814 5.65875 2.57814C5.6611 1.19673 6.65063 0.206734 8.0325 0.205796C11.3147 0.203921 14.5973 0.20439 17.8795 0.205796C19.2572 0.206265 20.2523 1.19298 20.2692 2.57158C20.273 2.8833 20.2763 3.19548 20.2669 3.5072C20.2631 3.63892 20.3119 3.69517 20.4323 3.74251C21.5484 4.18314 22.1827 5.16142 22.1283 6.3558C22.1002 6.97126 21.8541 7.49908 21.4538 7.96126C21.1223 8.34423 20.7994 8.73564 20.46 9.11158C20.3208 9.26626 20.2767 9.42658 20.2603 9.63236C20.2294 10.0331 20.3367 10.2544 20.7319 10.4653C22.0622 11.176 22.3495 12.9666 21.3614 14.1249C21.0581 14.4802 20.7272 14.8125 20.4005 15.1472C20.295 15.255 20.25 15.3638 20.2509 15.5161C20.2566 16.8881 20.2598 18.2606 20.2523 19.6327C20.2458 20.7577 19.4845 21.6736 18.3863 21.8874C18.2044 21.923 18.0141 21.9249 17.8275 21.9258C17.1492 21.93 16.4709 21.9333 15.7927 21.9235C15.6173 21.9211 15.5644 21.9694 15.5719 22.1456C15.5864 22.4883 15.5784 22.8314 15.5756 23.1745C15.5723 23.565 15.352 23.8008 15.0023 23.7952C14.6653 23.7895 14.4577 23.5561 14.4548 23.1731C14.452 22.8225 14.4459 22.471 14.4581 22.1208C14.4638 21.9624 14.4089 21.9235 14.2594 21.9244C13.3552 21.93 12.4505 21.9277 11.5463 21.9267C11.0813 21.9267 10.8338 21.7378 10.8258 21.3811C10.8178 21.0145 11.077 20.8055 11.5453 20.8055C13.635 20.8055 15.7242 20.8069 17.8139 20.8031C17.9911 20.8031 18.1758 20.7933 18.3441 20.7441C18.8039 20.6091 19.1109 20.2031 19.1423 19.7264C19.148 19.6411 19.1484 19.5549 19.1484 19.4691C19.1484 13.8553 19.1484 8.24205 19.1484 2.6283C19.1484 1.9383 18.8166 1.48173 18.2189 1.35376C18.1134 1.33126 18.0023 1.32845 17.8941 1.32845C14.6119 1.32705 11.3292 1.32705 8.04703 1.32751C7.26235 1.32751 6.78188 1.80986 6.78188 2.59689C6.78141 4.69408 6.78188 6.79126 6.78094 8.88892C6.78094 9.25689 6.62485 9.47205 6.32719 9.52689C5.9911 9.58876 5.69906 9.37455 5.66391 9.03517C5.65453 8.94283 5.6625 8.84908 5.6625 8.7558L5.595 8.73611L5.59453 8.73517ZM20.2542 7.56939C20.7216 7.12455 21.0656 6.66283 20.9803 6.00939C20.9194 5.54251 20.7028 5.16845 20.2542 4.90736V7.56939ZM20.2655 13.6331C20.9897 13.02 20.9831 11.8838 20.2655 11.5369V13.6331Z" fill="black"/>
<path d="M1.86844 20.7061C1.88766 18.4538 2.57016 16.4016 3.70922 14.483C4.53797 13.0871 5.56781 11.8467 6.68344 10.6781C7.53516 9.78565 8.91797 9.75565 9.80766 10.5675C10.7067 11.3878 10.7934 12.7608 9.99844 13.71C9.59813 14.1877 9.16313 14.6381 8.78203 15.1299C8.04563 16.08 7.65703 17.1525 7.76531 18.3722C7.83891 19.2 8.12109 19.9631 8.50453 20.693C8.57719 20.8308 8.65875 20.9644 8.72203 21.1064C8.84625 21.3853 8.74547 21.6975 8.49563 21.8372C8.23359 21.9835 7.90078 21.9071 7.74188 21.6319C6.97875 20.3128 6.47203 18.9225 6.64594 17.3639C6.765 16.2989 7.19578 15.3544 7.84031 14.5111C8.22797 14.0039 8.65781 13.5296 9.07266 13.0435C9.50813 12.5335 9.51281 11.9081 9.07922 11.4652C8.66531 11.0419 7.97344 10.9866 7.56188 11.4155C5.745 13.3088 4.15922 15.3553 3.41297 17.933C2.92594 19.6163 2.90391 21.3117 3.28078 23.0175C3.36656 23.4066 3.19781 23.6996 2.85703 23.7736C2.54672 23.8411 2.25797 23.6297 2.17969 23.2533C2.09906 22.8647 2.02172 22.4742 1.97484 22.0805C1.92094 21.6244 1.90266 21.1641 1.86844 20.7061Z" fill="black"/>
<path d="M13.1348 17.7966C13.6505 17.7924 14.0738 18.2077 14.078 18.7224C14.0822 19.2375 13.6664 19.6613 13.1522 19.6659C12.6375 19.6702 12.2133 19.2534 12.2091 18.7397C12.2048 18.2241 12.6206 17.8008 13.1348 17.7966Z" fill="black"/>
<path d="M15.2339 6.97034C15.5573 6.97034 15.8198 6.70784 15.8198 6.3844C15.8198 6.06096 15.5573 5.79846 15.2339 5.79846H11.0527C10.7292 5.79846 10.4667 6.06096 10.4667 6.3844C10.4667 6.70784 10.7292 6.97034 11.0527 6.97034H12.5447V9.65159L11.0395 10.5206C10.7592 10.6824 10.6631 11.041 10.8248 11.3213C10.9336 11.5092 11.1305 11.6142 11.333 11.6142C11.4323 11.6142 11.5331 11.5889 11.6255 11.5355L12.5447 11.0049V13.5811C12.5447 13.9046 12.8072 14.1671 13.1306 14.1671C13.4541 14.1671 13.7166 13.9046 13.7166 13.5811V10.328L15.2466 9.44487C15.5269 9.28315 15.623 8.92456 15.4613 8.64424C15.2995 8.36393 14.9409 8.26784 14.6606 8.42956L13.7166 8.97471V6.96987H15.2334L15.2339 6.97034Z" fill="black"/>
</g>
<defs>
<clipPath id="clip0_403_11345">
<rect width="24" height="24" fill="white"/>
</clipPath>
</defs>
</svg>
